<?xml version="1.0" standalone="no"?>
<!DOCTYPE svg PUBLIC "-//W3C//DTD SVG 20010904//EN"
 "http://www.w3.org/TR/2001/REC-SVG-20010904/DTD/svg10.dtd">
<svg version="1.0" xmlns="http://www.w3.org/2000/svg"
 width="200.000000pt" height="200.000000pt" viewBox="0 0 200.000000 200.000000"
 preserveAspectRatio="xMidYMid meet">

<g transform="translate(0.000000,200.000000) scale(0.100000,-0.100000)"
fill="#000000" stroke="none">
<path d="M1228 1960 c-68 -12 -150 -52 -201 -99 -43 -40 -99 -131 -110 -181
-5 -21 -18 -30 -74 -48 -174 -56 -345 -204 -434 -376 -30 -58 -38 -67 -69 -72
-63 -11 -159 -65 -202 -113 -209 -235 -82 -590 229 -642 32 -5 70 -7 85 -3 24
5 37 -3 94 -60 109 -108 227 -175 369 -211 79 -20 262 -24 334 -7 42 10 46 9
97 -29 74 -57 139 -79 227 -79 97 0 162 21 234 74 102 74 153 179 153 313 0
88 -22 153 -79 227 -38 51 -39 55 -29 97 17 73 14 255 -6 334 -23 94 -85 220
-146 296 -33 41 -48 68 -44 79 16 36 16 178 1 231 -53 180 -244 300 -429 269z
m166 -220 c122 -78 111 -267 -18 -330 -83 -40 -188 -16 -242 56 -26 34 -29 45
-29 114 0 68 3 80 28 113 62 82 174 102 261 47z m-453 -325 c34 -72 102 -140
176 -177 116 -57 279 -50 378 18 l39 26 23 -28 c83 -104 120 -237 115 -408
l-2 -49 -44 6 c-107 15 -234 -29 -316 -109 -81 -78 -128 -212 -113 -320 l6
-44 -49 -2 c-188 -6 -330 41 -444 145 l-41 38 35 39 c63 70 88 134 94 236 3
69 0 103 -13 143 -25 75 -95 166 -155 198 -27 16 -50 33 -50 38 0 31 114 166
180 212 21 15 150 83 157 83 2 0 12 -20 24 -45z m-420 -445 c81 -54 111 -153
71 -242 -64 -145 -270 -148 -343 -6 -67 131 35 285 181 275 37 -2 67 -11 91
-27z m1175 -395 c75 -57 96 -182 44 -258 -35 -52 -83 -80 -145 -85 -137 -11
-234 107 -200 242 32 126 196 181 301 101z"/>
</g>
</svg>
